<?xml version="1.0" encoding="utf-8" ?>
<svg xmlns="http://www.w3.org/2000/svg" xmlns:xlink="http://www.w3.org/1999/xlink" width="1024" height="1024">
	<path fill="#E2E2E2" d="M0 0L1024 0L1024 1024L0 1024L0 0Z"/>
	<path d="M419.428 337.173C422.834 337.243 425.982 337.378 429.119 338.908Q429.85 339.263 430.541 339.69Q431.232 340.116 431.877 340.611Q432.522 341.106 433.113 341.663Q433.704 342.22 434.236 342.834Q434.768 343.448 435.235 344.113Q435.702 344.778 436.099 345.487Q436.496 346.195 436.82 346.941Q437.143 347.686 437.39 348.46Q437.63 349.227 437.793 350.014Q437.955 350.801 438.037 351.6Q438.12 352.4 438.121 353.203Q438.123 354.007 438.044 354.806Q437.966 355.606 437.807 356.394Q437.648 357.182 437.412 357.949Q437.175 358.717 436.862 359.458Q436.549 360.198 436.164 360.903C433.53 365.667 429.49 367.69 424.526 369.22C419.916 369.606 415.8 369.169 411.934 366.406Q411.301 365.952 410.716 365.437Q410.132 364.921 409.603 364.349Q409.074 363.778 408.605 363.155Q408.136 362.533 407.732 361.867Q407.328 361.2 406.994 360.496Q406.66 359.793 406.398 359.059Q406.136 358.325 405.95 357.568Q405.764 356.812 405.655 356.04Q405.536 355.184 405.504 354.321Q405.471 353.458 405.525 352.595Q405.579 351.733 405.718 350.88Q405.858 350.028 406.081 349.193Q406.305 348.359 406.611 347.551Q406.917 346.743 407.302 345.969Q407.687 345.196 408.147 344.465Q408.607 343.734 409.138 343.052C411.842 339.595 415.138 337.767 419.428 337.173Z"/>
	<path d="M313.204 385.347C321.631 411.364 338.773 431.343 360.744 447.096C365.642 450.609 372.043 452.786 376.451 456.827C385.893 465.486 389.996 490.687 390.828 503.016C373.4 496.593 354.294 490.94 335.654 490.355C309.117 488.225 284.196 494.293 260.116 505.054C266.637 470.048 276.349 440.801 295.319 410.437C300.794 401.675 306.422 393.17 313.204 385.347Z"/>
	<path d="M639.111 475.916C639.61 476.482 639.438 476.234 639.841 476.924C646.976 489.139 652.474 502.263 657.456 515.477C683.349 584.159 683.953 658.657 666.02 729.301C656.205 728.777 646.288 729.053 636.461 729.083L592.75 729.144Q573.149 729.259 553.549 729.024C557.412 724.191 561.549 719.539 565.515 714.786Q568.069 711.697 570.546 708.547Q573.023 705.397 575.422 702.187Q577.821 698.977 580.141 695.709Q582.461 692.441 584.7 689.118Q586.939 685.794 589.096 682.417Q591.253 679.039 593.327 675.61Q595.4 672.18 597.389 668.701Q599.378 665.222 601.281 661.696Q603.185 658.169 605.001 654.596Q606.817 651.024 608.545 647.408Q610.273 643.793 611.913 640.136Q613.552 636.479 615.101 632.783Q616.65 629.087 618.108 625.354Q619.566 621.621 620.932 617.854Q622.298 614.086 623.571 610.286Q624.845 606.486 626.025 602.657Q627.205 598.827 628.291 594.969Q629.376 591.112 630.367 587.229Q631.358 583.345 632.254 579.439Q633.15 575.533 633.949 571.606Q634.749 567.679 635.452 563.734Q636.155 559.789 636.761 555.827Q637.368 551.866 637.877 547.891Q638.386 543.916 638.798 539.93Q639.209 535.943 639.523 531.948Q639.837 527.953 640.053 523.951Q640.269 519.949 640.386 515.944Q640.504 511.938 640.524 507.93Q640.543 503.923 640.465 499.916Q640.386 495.91 640.21 491.906Q640.033 487.902 639.758 483.904Q639.484 479.906 639.111 475.916Z"/>
	<path d="M499.337 294.23C538.049 292.571 578.989 301.069 614.496 316.319Q617.412 317.584 620.297 318.92Q623.182 320.255 626.033 321.66Q628.885 323.064 631.702 324.537Q634.519 326.01 637.299 327.551Q640.08 329.091 642.823 330.699Q645.565 332.306 648.268 333.979Q650.971 335.651 653.633 337.389Q656.295 339.127 658.914 340.928Q661.533 342.729 664.108 344.593Q666.683 346.457 669.213 348.383Q671.742 350.309 674.224 352.295Q676.706 354.281 679.139 356.326Q681.573 358.371 683.956 360.475Q686.339 362.578 688.671 364.739Q691.003 366.899 693.282 369.115Q695.561 371.331 697.786 373.602Q700.011 375.872 702.181 378.195Q704.35 380.519 706.463 382.894Q708.576 385.269 710.631 387.694Q712.686 390.119 714.681 392.594Q716.677 395.068 718.613 397.59Q720.548 400.111 722.422 402.679Q724.297 405.246 726.108 407.859Q727.92 410.471 729.668 413.126Q731.416 415.781 733.099 418.477Q734.783 421.174 736.401 423.91Q738.018 426.646 739.57 429.421Q741.121 432.195 742.605 435.006Q744.089 437.818 745.505 440.664Q746.921 443.51 748.268 446.389Q749.614 449.269 750.891 452.18Q752.168 455.091 753.374 458.032L744.201 452.824C737.773 449.772 731.381 446.7 724.647 444.364C698.179 435.183 668.332 434.135 641.007 439.813Q635.75 431.145 629.913 422.855Q624.077 414.566 617.69 406.693Q611.302 398.821 604.392 391.402Q597.483 383.984 590.084 377.053C583.362 370.778 572.93 363.874 567.318 357.563C563.841 353.654 562.231 347.796 559.785 343.178C557.825 339.478 555.172 336.033 552.669 332.688C536.973 311.713 512.887 298.498 487.012 294.779C491.108 294.478 495.233 294.395 499.337 294.23Z"/>
	<path d="M441.405 304.212C465.415 303.308 491.458 310.878 511.002 324.821C518.892 325.105 525.313 326.296 531.351 331.869C536.729 336.833 540.507 343.584 540.627 351.04C540.733 357.54 537.755 363.832 533.253 368.431C528.357 373.432 521.795 375.87 514.842 375.816C508.35 375.765 501.971 373.516 497.429 368.768C492.854 363.985 490.071 356.562 490.301 349.936C490.561 342.463 493.641 336.581 499.042 331.602C485.761 324.32 471.261 319.141 456.168 317.405C434.532 314.916 411.43 319.319 393.719 332.461C388.789 336.119 384.941 340.801 380.169 344.507C380.038 344.608 379.906 344.706 379.774 344.806C374.4 343.548 368.883 343.326 363.395 342.954C363.62 347.536 363.374 351.624 361.155 355.788C356.841 363.887 348.858 366.584 340.727 369.125Q341.528 372.832 342.705 376.438Q343.881 380.044 345.421 383.51C354 402.94 370.836 419.74 389.671 429.399C398.205 433.776 407.476 436.869 416.402 440.349C428.321 444.997 440.459 449.937 451.743 455.993C487.438 475.148 517.414 505.092 533.785 542.376C549.116 576.838 552.705 614.322 548.628 651.557C547.591 661.021 545.001 670.29 544.159 679.721L544.093 680.503L543.957 679.86Q543.376 677.17 542.736 674.494Q542.095 671.818 541.395 669.156Q540.695 666.495 539.936 663.85Q539.176 661.205 538.358 658.578Q537.54 655.951 536.663 653.342Q535.787 650.734 534.852 648.146Q533.917 645.557 532.925 642.991Q531.933 640.424 530.884 637.88Q529.835 635.336 528.729 632.816Q527.623 630.296 526.461 627.802Q525.3 625.307 524.083 622.839Q522.866 620.371 521.594 617.931Q520.322 615.49 518.996 613.079Q517.67 610.668 516.29 608.287Q514.911 605.906 513.479 603.556Q512.046 601.207 510.562 598.889Q509.078 596.572 507.542 594.289Q506.006 592.006 504.42 589.757Q502.833 587.508 501.197 585.296Q499.561 583.083 497.876 580.908Q496.191 578.732 494.458 576.595Q492.725 574.457 490.944 572.359Q489.164 570.261 487.337 568.203Q485.51 566.145 483.638 564.129Q481.765 562.112 479.848 560.138Q477.931 558.163 475.971 556.232Q474.01 554.301 472.007 552.415Q470.004 550.528 467.96 548.686Q465.915 546.844 463.83 545.049Q461.744 543.253 459.619 541.505Q457.495 539.756 455.331 538.056Q453.168 536.355 450.967 534.703C438.169 525.266 423.999 518.475 410.679 509.95Q410.44 506.136 410 502.341Q409.559 498.545 408.917 494.778Q408.275 491.011 407.434 487.283Q406.593 483.556 405.555 479.878Q404.517 476.201 403.285 472.584Q402.053 468.966 400.631 465.42Q399.209 461.873 397.6 458.407Q395.991 454.941 394.201 451.565C392.58 448.564 390.684 444.429 387.931 442.317C383.871 439.202 378.639 437.05 374.182 434.443C363.318 428.088 353.5 418.986 345.985 408.918C335.44 394.794 325.36 374.156 328.138 355.989C329.287 348.472 332.838 341.595 339.168 337.138C348.921 330.271 363.751 329.73 375.112 331.637C379.349 328.081 383.458 324.337 387.973 321.132C403.77 309.919 422.278 305.26 441.405 304.212Z"/>
	<path d="M669.833 454.717C676.337 454.004 683.517 454.603 690 455.277C727.352 459.157 760.607 477.949 784.027 507.098C807.589 536.424 817.8 572.676 813.611 609.995C809.334 648.093 789.886 679.416 760.286 703.171C737.917 719.337 712.527 728.647 684.786 729.03C704.943 657.506 699.791 575.773 674.156 506.278C667.881 489.267 659.545 473.001 651.49 456.786C657.589 455.771 663.674 455.169 669.833 454.717Z"/>
	<path d="M317.266 507.704C319.601 507.377 322.131 507.417 324.49 507.368C374.342 506.344 425.504 532.955 460.783 566.837Q462.816 568.813 464.8 570.838Q466.784 572.863 468.718 574.936Q470.652 577.009 472.534 579.129Q474.417 581.249 476.246 583.414Q478.076 585.579 479.853 587.789Q481.629 589.998 483.351 592.25Q485.073 594.503 486.738 596.797Q488.404 599.09 490.014 601.424Q491.623 603.758 493.175 606.131Q494.726 608.504 496.219 610.914Q497.712 613.323 499.146 615.769Q500.579 618.215 501.953 620.695Q503.326 623.176 504.638 625.689Q505.95 628.202 507.2 630.746Q508.45 633.291 509.637 635.865Q510.825 638.44 511.949 641.042Q513.072 643.645 514.132 646.275Q515.192 648.904 516.187 651.559Q517.182 654.213 518.112 656.891Q519.042 659.57 519.905 662.27Q520.769 664.97 521.567 667.691Q522.364 670.411 523.095 673.15Q523.825 675.89 524.488 678.646Q525.152 681.402 525.747 684.174Q526.343 686.946 526.87 689.731Q527.397 692.517 527.856 695.314Q528.315 698.112 528.706 700.92Q529.096 703.728 529.417 706.545Q529.739 709.361 529.991 712.185Q530.243 715.009 530.426 717.838Q530.609 720.667 530.723 723.5Q530.837 726.332 530.881 729.167L423.75 729.352L350.927 729.338C332.237 729.289 312.218 730.688 293.971 726.414Q291.023 725.709 288.12 724.838Q285.216 723.967 282.367 722.932Q279.518 721.898 276.732 720.703Q273.946 719.509 271.233 718.158Q268.519 716.807 265.887 715.305Q263.254 713.802 260.712 712.152Q258.169 710.502 255.724 708.711Q253.278 706.919 250.939 704.992C226.919 685.402 212.274 659.129 209.225 628.163C206.382 599.282 216.05 570.712 234.479 548.493C255.014 523.733 285.689 510.571 317.266 507.704Z"/>
</svg>
